<svg width="60" height="60" viewBox="0 0 60 60" fill="none" xmlns="http://www.w3.org/2000/svg">
<path d="M43.9973 59.9963H3.99975C1.79989 59.9963 0 58.1964 0 55.9965V3.99975C0 1.79989 1.79989 0 3.99975 0H43.9973C46.1971 0 47.997 1.79989 47.997 3.99975V55.9965C47.997 58.1964 46.1971 59.9963 43.9973 59.9963Z" fill="url(#paint0_linear_273_6200)"/>
<path d="M3.99976 5.99951H17.9989V7.99939H3.99976V5.99951Z" fill="#BDBDBD"/>
<path d="M3.99976 11.999H41.9974V13.9989H3.99976V11.999Z" fill="#BDBDBD"/>
<path d="M3.99976 17.9988H41.9974V19.9987H3.99976V17.9988Z" fill="#BDBDBD"/>
<path d="M3.99976 23.9983H41.9974V25.9982H3.99976V23.9983Z" fill="#BDBDBD"/>
<path d="M3.99976 29.998H41.9974V31.9979H3.99976V29.998Z" fill="#BDBDBD"/>
<path d="M3.99976 35.9976H31.998V37.9974H3.99976V35.9976Z" fill="#BDBDBD"/>
<path d="M3.99976 41.9973H27.9983V43.9972H3.99976V41.9973Z" fill="#BDBDBD"/>
<path d="M3.99976 47.9968H13.9991V49.9967H3.99976V47.9968Z" fill="#BDBDBD"/>
<path opacity="0.2" d="M43.9973 1.49991C45.3772 1.49991 46.4971 2.61984 46.4971 3.99975V55.9965C46.4971 57.3764 45.3772 58.4963 43.9973 58.4963H3.99975C2.61984 58.4963 1.49991 57.3764 1.49991 55.9965V3.99975C1.49991 2.61984 2.61984 1.49991 3.99975 1.49991H43.9973ZM43.9973 0H3.99975C1.79989 0 0 1.79989 0 3.99975V55.9965C0 58.1964 1.79989 59.9963 3.99975 59.9963H43.9973C46.1971 59.9963 47.997 58.1964 47.997 55.9965V3.99975C47.997 1.79989 46.1971 0 43.9973 0Z" fill="#424242"/>
<path d="M16.074 48.0722L18.3388 42.0275L19.8987 37.8678C20.2487 36.7929 20.8487 35.8179 21.6486 35.018L25.2484 31.4182L34.5828 40.7526L30.9831 44.3524C30.1831 45.1524 29.2082 45.7523 28.1332 46.1023L23.9735 47.6622L17.9289 49.9271C16.7839 50.297 15.699 49.2121 16.074 48.0722Z" fill="url(#paint1_linear_273_6200)"/>
<path opacity="0.2" d="M25.2434 33.5381L32.453 40.7476L29.9131 43.2875C29.2832 43.9174 28.5032 44.3974 27.6583 44.6724L27.5983 44.6924L23.4385 46.2523L17.5239 48.4672L19.7388 42.5525L21.2987 38.3928L21.3187 38.3328C21.5936 37.4878 22.0736 36.7079 22.7036 36.0779L25.2434 33.5381ZM25.2434 31.4182L21.6436 35.018C20.8437 35.8179 20.2437 36.7929 19.8937 37.8678L18.3338 42.0276L16.069 48.0722C15.749 49.0571 16.509 49.9971 17.4539 49.9971C17.6039 49.9971 17.7589 49.9721 17.9189 49.9221L23.9635 47.6572L28.1232 46.0973C29.1982 45.7473 30.1731 45.1474 30.9731 44.3474L34.5728 40.7476L25.2434 31.4182Z" fill="#424242"/>
<path d="M16.074 48.072L18.3389 42.0273C19.5188 42.6123 20.6337 43.3973 21.6137 44.3822C22.5986 45.3671 23.3785 46.4771 23.9685 47.657L17.9239 49.9219C16.784 50.2968 15.699 49.2119 16.074 48.072Z" fill="url(#paint2_linear_273_6200)"/>
<path opacity="0.2" d="M19.1138 44.2272C19.6288 44.5872 20.1087 44.9922 20.5537 45.4371C20.9987 45.8821 21.4037 46.3621 21.7636 46.877L17.5239 48.4669L19.1138 44.2272ZM18.3388 42.0273L16.074 48.072C15.754 49.0569 16.514 49.9968 17.4589 49.9968C17.6089 49.9968 17.7639 49.9718 17.9239 49.9219L23.9685 47.657C23.3835 46.4771 22.5986 45.3621 21.6136 44.3822C20.6337 43.3973 19.5188 42.6123 18.3388 42.0273Z" fill="#424242"/>
<path d="M42.5423 14.1191L51.8767 23.4535L54.9866 20.3387L45.6571 11.0093L42.5423 14.1191Z" fill="url(#paint3_linear_273_6200)"/>
<path d="M52.9119 22.4182L43.5788 13.0851L44.6146 12.0492L53.9478 21.3824L52.9119 22.4182Z" fill="#9E9E9E"/>
<path d="M45.6572 11.0092L54.9916 20.3436L59.1413 16.1938C60.2863 15.0489 60.2863 13.189 59.1413 12.0441L53.9566 6.85943C52.8117 5.7145 50.9518 5.7145 49.8069 6.85943L45.6572 11.0092Z" fill="url(#paint4_linear_273_6200)"/>
<path d="M49.112 20.6837L45.3072 16.8789L26.1084 36.0777L26.0734 36.8277C26.0034 38.4426 27.5483 39.9875 29.1582 39.9125L29.9082 39.8775L49.112 20.6837Z" fill="url(#paint5_linear_273_6200)"/>
<path d="M51.8768 23.4535L31.823 43.5073C30.6981 43.0373 29.8282 41.8574 29.8782 40.6375L29.9131 39.8875L49.1119 20.6887L51.8768 23.4535Z" fill="url(#paint6_linear_273_6200)"/>
<path d="M45.3122 16.884L26.1134 36.0828L25.3634 36.1178C24.1435 36.1728 22.9636 35.2978 22.4936 34.1729L42.5473 14.1191L45.3122 16.884Z" fill="url(#paint7_linear_273_6200)"/>
<path opacity="0.2" d="M51.8768 7.49942C52.2617 7.49942 52.6217 7.64941 52.8917 7.91939L58.0764 13.1041C58.3464 13.3741 58.4963 13.734 58.4963 14.119C58.4963 14.504 58.3464 14.864 58.0764 15.1339L31.673 41.5373C31.483 41.2773 31.368 40.9773 31.378 40.7023L31.413 39.9524L31.483 38.3175L29.8481 38.3875L29.0982 38.4225H29.0582C28.7132 38.4225 28.3232 38.2325 28.0232 37.9175C27.7283 37.6125 27.5633 37.2276 27.5783 36.8976L27.6133 36.1476L27.6833 34.5127L26.0484 34.5827L25.2984 34.6177H25.2584C24.9934 34.6177 24.7084 34.5077 24.4635 34.3227L50.8668 7.91939C51.1368 7.64941 51.4968 7.49942 51.8768 7.49942ZM51.8768 5.99951C51.1268 5.99951 50.3768 6.28449 49.8019 6.85946L22.4886 34.1728C22.9486 35.2677 24.0735 36.1176 25.2534 36.1176H25.3584L26.1084 36.0826L26.0784 36.8326C26.0084 38.4125 27.4833 39.9224 29.0582 39.9224H29.1632L29.9131 39.8874L29.8781 40.6373C29.8231 41.8573 30.6981 43.0372 31.823 43.5072L59.1363 16.1939C60.2812 15.0489 60.2812 13.1891 59.1363 12.0441L53.9516 6.85946C53.3817 6.28449 52.6267 5.99951 51.8768 5.99951Z" fill="#424242"/>
<defs>
<linearGradient id="paint0_linear_273_6200" x1="23.9985" y1="-1.83324" x2="23.9985" y2="59.2963" gradientUnits="userSpaceOnUse">
<stop stop-color="#F5F5F5"/>
<stop offset="1" stop-color="#E0E0E0"/>
</linearGradient>
<linearGradient id="paint1_linear_273_6200" x1="25.2889" y1="12.5334" x2="25.2889" y2="48.8571" gradientUnits="userSpaceOnUse">
<stop offset="0.006854" stop-color="#FFECB3"/>
<stop offset="1" stop-color="#FFE082"/>
</linearGradient>
<linearGradient id="paint2_linear_273_6200" x1="19.9843" y1="33.9258" x2="19.9843" y2="49.5069" gradientUnits="userSpaceOnUse">
<stop stop-color="#757575"/>
<stop offset="1" stop-color="#424242"/>
</linearGradient>
<linearGradient id="paint3_linear_273_6200" x1="48.7669" y1="9.0244" x2="48.7669" y2="24.7949" gradientUnits="userSpaceOnUse">
<stop stop-color="#E0E0E0"/>
<stop offset="1" stop-color="#9E9E9E"/>
</linearGradient>
<linearGradient id="paint4_linear_273_6200" x1="52.8262" y1="3.86062" x2="52.8262" y2="19.0037" gradientUnits="userSpaceOnUse">
<stop stop-color="#E57373"/>
<stop offset="1" stop-color="#F44336"/>
</linearGradient>
<linearGradient id="paint5_linear_273_6200" x1="37.5937" y1="10.4603" x2="37.5937" y2="37.8956" gradientUnits="userSpaceOnUse">
<stop stop-color="#FFC107"/>
<stop offset="1" stop-color="#FFA000"/>
</linearGradient>
<linearGradient id="paint6_linear_273_6200" x1="53.2164" y1="19.3493" x2="34.6795" y2="37.8861" gradientUnits="userSpaceOnUse">
<stop stop-color="#FFCA28"/>
<stop offset="1" stop-color="#FFB300"/>
</linearGradient>
<linearGradient id="paint7_linear_273_6200" x1="46.6485" y1="12.7814" x2="28.1116" y2="31.3183" gradientUnits="userSpaceOnUse">
<stop stop-color="#FFCA28"/>
<stop offset="1" stop-color="#FFB300"/>
</linearGradient>
</defs>
</svg>
