<svg width="50" height="62" viewBox="0 0 50 62" fill="none" xmlns="http://www.w3.org/2000/svg">
<path d="M22.0144 51.6034C22.0144 51.6034 23.0773 48.5848 23.8576 46.779L33.7487 25.5673L30.6997 24.1455L20.8086 45.3572C20.1358 46.7639 18.2924 49.8789 18.2924 49.8789C16.2853 53.1037 14.6148 56.1239 14.3095 56.7785C13.6686 58.1529 14.2632 59.7864 15.6374 60.4272C17.0117 61.068 18.6452 60.4735 19.286 59.0993C19.5913 58.4443 20.8341 55.2136 22.0144 51.6034Z" fill="#EE8700"/>
<path d="M16.1619 57.6423C16.4672 56.9876 18.1378 53.9675 20.1448 50.7426C20.1448 50.7426 21.9882 47.6277 22.661 46.221L32.5521 25.0093L30.6996 24.1455L20.8085 45.3572C20.1358 46.7639 18.2923 49.8789 18.2923 49.8789C16.2853 53.1037 14.6148 56.1239 14.3094 56.7785C13.6686 58.1529 14.2631 59.7864 15.6373 60.4272C15.965 60.58 16.3074 60.6606 16.6475 60.679C15.9039 59.8846 15.674 58.6888 16.1619 57.6423Z" fill="#CC7400"/>
<path d="M48.08 16.0825C45.5914 21.4194 36.3418 29.9598 31.0049 27.471C25.668 24.9823 26.2647 12.4072 28.7534 7.07033C31.2421 1.73345 37.5859 -0.57547 42.9227 1.91312C48.2594 4.40171 50.5686 10.7456 48.08 16.0825Z" fill="#FFA733"/>
<path d="M32.2336 8.73843C34.4607 3.96273 39.7746 1.61464 44.6918 2.95654C44.1464 2.56033 43.5567 2.20883 42.9229 1.91336C37.5861 -0.575226 31.2423 1.7337 28.7537 7.07057C26.2651 12.4074 25.6683 24.9826 31.0051 27.4713C31.5876 27.7429 32.2166 27.883 32.8784 27.9104C29.3109 23.861 30.0303 13.4634 32.2336 8.73843Z" fill="#EE8700"/>
<path d="M47.8539 16.5414C47.9308 16.3929 49.3467 13.9363 49.0329 10.7224C40.8251 8.76426 33.1944 3.30652 32.4483 2.75366C29.7252 4.52045 28.6746 7.24257 28.6401 7.32102C37.802 13.9598 44.7154 15.7985 47.8539 16.5414Z" fill="#2488FF"/>
<path d="M32.2336 8.73847C32.9929 7.11026 34.1115 5.76486 35.4504 4.75097C33.7963 3.72876 32.7073 2.94562 32.4483 2.75366C29.7252 4.52045 28.6746 7.24257 28.6401 7.32102C29.7592 8.13199 30.8442 8.87006 31.8934 9.54462C32.0025 9.26121 32.1157 8.99128 32.2336 8.73847Z" fill="#006DF0"/>
<path d="M27.363 11.8184C26.6646 15.8396 26.9761 18.8549 26.9761 18.8549C29.2939 20.3912 34.7994 23.5318 40.0281 25.1393C41.9123 23.7944 43.6815 22.1416 45.1435 20.4276C37.2317 18.418 28.2849 12.5232 27.363 11.8184Z" fill="#9CDD05"/>
<path d="M30.7584 13.9971C28.9306 12.9064 27.6781 12.0592 27.363 11.8184C26.6646 15.8396 26.9761 18.8549 26.9761 18.8549C27.798 19.3997 29.0222 20.1466 30.4914 20.955C30.2877 18.6726 30.407 16.2248 30.7584 13.9971Z" fill="#85BB04"/>
<path d="M31.7022 49.8701C31.7022 49.8701 30.0731 47.1157 29.1912 45.357L19.3001 24.1453L16.2511 25.5671L26.1422 46.7788C26.7874 48.1984 27.9886 51.6128 27.9886 51.6128C29.1688 55.2231 30.4085 58.4442 30.7139 59.0989C31.3547 60.4732 32.9882 61.0678 34.3625 60.4268C35.7369 59.786 36.3314 58.1525 35.6905 56.7782C35.3852 56.1235 33.7093 53.0948 31.7022 49.8701Z" fill="#FFA733"/>
<path d="M32.5665 58.2353C32.2612 57.5807 31.0216 54.3594 29.8413 50.7492C29.8413 50.7492 28.6401 47.3348 27.995 45.9152L18.1037 24.7036L16.2513 25.5674L26.1424 46.7791C26.7875 48.1987 27.9888 51.6131 27.9888 51.6131C29.169 55.2234 30.4087 58.4445 30.7141 59.0992C31.3549 60.4735 32.9884 61.0681 34.3627 60.4271C34.6904 60.2743 34.9722 60.0638 35.205 59.8151C34.1183 59.8742 33.0546 59.2818 32.5665 58.2353Z" fill="#EE8700"/>
<path d="M21.2465 7.07052C23.7351 12.4074 24.332 24.9825 18.9951 27.4712C13.6582 29.96 4.40866 21.4196 1.91995 16.0827C-0.568764 10.7458 1.74028 4.40203 7.07715 1.91344C12.4142 -0.575272 18.7579 1.73365 21.2465 7.07052Z" fill="#FFC477"/>
<path d="M5.43473 14.4886C3.20775 9.71264 4.82476 4.13283 9.01338 1.22852C8.3593 1.39167 7.711 1.61737 7.07716 1.91296C1.74029 4.40155 -0.568635 10.7453 1.91996 16.0822C4.40854 21.4191 13.6582 29.9595 18.9951 27.4708C19.5776 27.1992 20.0894 26.8073 20.5357 26.3179C15.1405 26.4482 7.63798 19.2136 5.43473 14.4886Z" fill="#FF9811"/>
<path d="M21.4527 7.53853C21.3882 7.38417 20.4165 4.72049 17.753 2.89502C10.9771 7.92389 1.89116 10.2613 0.988124 10.4774C0.591314 13.699 2.00118 16.2537 2.03914 16.3304C13.0137 13.5794 18.8662 9.46534 21.4527 7.53853Z" fill="#57A4FF"/>
<path d="M5.43474 14.4887C4.67546 12.8605 4.36384 11.1388 4.44783 9.46143C2.6014 10.0714 1.30167 10.4023 0.988246 10.4774C0.591436 13.699 2.0013 16.2536 2.03926 16.3304C3.37971 15.9943 4.64268 15.6377 5.83372 15.2675C5.68646 15.0018 5.55259 14.7414 5.43474 14.4887Z" fill="#2488FF"/>
<path d="M4.66339 20.1999C7.29502 23.3196 9.80493 25.0193 9.80493 25.0193C12.4716 24.2311 18.4164 22.0326 23.0087 19.0603C23.1896 16.7523 23.0608 14.3347 22.6875 12.113C16.0623 16.882 5.79574 19.9466 4.66339 20.1999Z" fill="#B2FA09"/>
<path d="M8.51485 18.9993C6.50441 19.6983 5.05032 20.1133 4.66339 20.1997C7.29502 23.3195 9.80493 25.0191 9.80493 25.0191C10.7507 24.7397 12.1096 24.282 13.6733 23.6762C11.794 22.3651 9.99569 20.7003 8.51485 18.9993Z" fill="#91CC04"/>
<path d="M49.2957 7.61704C48.238 4.71104 46.112 2.39103 43.3094 1.08419C37.5238 -1.61371 30.6221 0.898381 27.9243 6.684C26.727 9.2514 25.9882 13.2219 25.9963 17.0458C26.0012 19.3317 26.2976 23.2874 28.0664 25.9958C28.0664 25.9958 27.6222 26.8948 28.3668 27.2367C28.1136 27.2862 27.8862 27.4508 27.7696 27.701L27.617 28.0284C27.5216 28.2329 27.5176 28.4572 27.5872 28.6557L25.0001 34.2038L22.4131 28.6558C22.4826 28.4574 22.4786 28.2329 22.3832 28.0285L22.2306 27.7011C22.1139 27.4508 21.8865 27.2863 21.6334 27.2368C22.4179 26.8338 21.9336 25.9953 21.9336 25.9953C23.7155 23.2669 24.0043 19.2734 24.0039 16.9794C24.0033 13.1779 23.2645 9.23308 22.0759 6.684C19.3779 0.898381 12.4761 -1.61383 6.69058 1.08407C3.88796 2.39103 1.76196 4.71104 0.704324 7.61704C-0.353315 10.5229 -0.216064 13.6667 1.09077 16.4693C3.30462 21.2169 10.4137 28.1944 16.1128 28.7885C16.1128 28.7885 16.4808 29.5785 17.1281 29.3252C16.9955 29.5536 16.9719 29.8411 17.0913 30.0973L17.2438 30.4247C17.3393 30.6291 17.5086 30.7765 17.7053 30.8507L22.1344 40.3488C22.1344 40.3488 20.364 45.0401 16.2496 51.4726C15.9772 51.8982 16.1321 52.4682 16.5659 52.7272C16.7129 52.8151 17.3253 53.1013 17.8205 52.4109C19.5713 49.9704 23.144 42.5137 23.144 42.5137L23.9907 44.329C23.9907 44.329 22.3771 47.9068 21.1516 51.2994L21.1448 51.319C19.9111 55.0928 18.7066 58.1769 18.4568 58.7123C18.2501 59.1555 17.3755 60.2274 16.024 59.5976C15.1092 59.1714 14.712 58.0798 15.1386 57.1649C15.2265 56.9765 15.5114 56.4304 16.025 55.5117C16.2715 55.0705 16.1138 54.5132 15.6726 54.2667C15.2316 54.0201 14.6741 54.1778 14.4276 54.619C13.9648 55.4472 13.6194 56.0932 13.4802 56.3917C12.6273 58.221 13.3667 60.5326 15.2507 61.256C18.2904 62.423 19.7021 60.3717 20.1151 59.4856C20.4475 58.7729 21.6895 55.5401 22.8806 51.8976C22.9467 51.7109 24.3904 47.2459 24.9999 46.4937C24.9999 46.4937 26.1801 49.3247 29.8846 59.4854C31.0835 62.7737 34.257 61.4855 34.749 61.2561C35.6352 60.8428 37.8384 59.6021 36.5196 56.3917C36.2208 55.6645 34.5092 52.6496 32.4844 49.3956C32.3836 49.2249 30.8491 46.6203 30.0148 44.9583L27.8654 40.3488L32.2943 30.8507C32.4911 30.7765 32.6604 30.6291 32.7558 30.4247L32.9084 30.0973C33.0278 29.8411 33.0043 29.5536 32.8715 29.3252C33.6451 29.5937 33.8868 28.7887 33.8868 28.7887C37.1672 28.4511 40.4798 26.0595 42.2617 24.5638C45.1733 22.1198 47.7205 19.0183 48.9091 16.4692C50.2161 13.6667 50.3533 10.5228 49.2957 7.61704ZM42.5363 2.74241C46.7132 4.69332 47.8441 9.0692 47.937 9.48843C41.9796 7.78647 36.4665 4.37255 34.1479 2.81989C36.7002 1.57861 39.7702 1.45064 42.5363 2.74241ZM32.4459 3.87693C34.3503 5.21015 40.9251 9.55928 48.1666 11.4484C48.1857 12.8202 47.9102 14.1887 47.346 15.4779C44.5372 14.782 38.1056 12.9103 29.7978 7.02466C30.4638 5.76205 31.3761 4.70369 32.4459 3.87693ZM44.8255 19.3965C37.9821 17.5151 30.43 12.8155 28.372 11.4126C28.5623 10.4538 28.7977 9.55265 29.0703 8.75036C37.0789 14.3573 43.3874 16.3474 46.4574 17.1405C46.0002 17.8735 45.4487 18.6353 44.8255 19.3965ZM32.9162 26.9963C32.8379 26.9931 30.2365 25.805 30.1936 25.7593C29.1866 24.6908 28.4671 22.9014 28.1013 20.6409C30.5278 22.0962 34.1923 24.0388 37.9588 25.4076C36.1991 26.4355 34.4432 27.0595 32.9162 26.9963ZM16.8381 27.0004C15.3349 26.989 13.6183 26.3338 11.9019 25.3032C14.5762 24.3797 18.417 22.8219 21.884 20.8179C21.5404 22.8266 20.8896 24.5728 19.8597 25.7019C19.807 25.7597 16.9626 27.0013 16.8381 27.0004ZM20.3107 7.24277C19.4867 7.84009 18.4362 8.56298 17.1184 9.35033C16.6846 9.60941 16.5415 10.172 16.8022 10.605C17.1724 11.2197 17.9098 11.0092 18.0569 10.9212C19.2416 10.2135 20.2178 9.55663 21.0135 8.99112C21.2813 9.81293 21.5107 10.7261 21.6935 11.6938C15.8554 15.7254 7.40563 18.489 5.00405 19.1653C4.38877 18.4017 3.84928 17.6426 3.41054 16.9195C6.6513 16.0514 9.70239 14.9951 12.4937 13.7721C12.9565 13.5694 13.1673 13.0298 12.9646 12.567C12.7618 12.1041 12.2221 11.8931 11.7595 12.0961C8.94323 13.3298 5.85008 14.3905 2.55582 15.2533C2.02441 13.953 1.78667 12.5769 1.84089 11.2029C4.07775 10.6035 11.6417 8.36319 17.7485 4.02792C18.7943 4.8795 19.6754 5.96268 20.3107 7.24277ZM7.46384 2.74241C10.3204 1.41039 13.4991 1.58861 16.0986 2.94449C10.9626 6.41492 4.80088 8.44308 2.12515 9.21995C2.20758 8.89158 2.30639 8.56527 2.42376 8.24268C3.31426 5.79615 5.1043 3.84271 7.46384 2.74241ZM6.32341 20.6844C9.4474 19.7352 16.5299 17.2618 21.9952 13.695C22.1774 15.2838 22.2355 16.9418 22.141 18.5278C17.9096 21.1858 12.6186 23.1847 9.9905 24.006C8.68752 23.0223 7.43275 21.8739 6.32341 20.6844ZM28.3736 45.7671C29.2595 47.5338 30.8477 50.2223 30.9149 50.3359L30.9256 50.3536C33.0236 53.7244 34.5898 56.6405 34.8616 57.1649C35.6736 58.733 34.4193 59.3912 33.9761 59.5977C33.5331 59.8045 32.2733 60.1359 31.5433 58.7124C31.2738 58.1867 30.09 55.0956 28.8586 51.3286L28.8519 51.3092C28.8023 51.1683 27.6298 47.8402 26.9716 46.3921L19.4704 30.3062L20.861 29.6577L28.3621 45.7437L28.3736 45.7671ZM26.0094 36.3687L29.1389 29.6577L30.5294 30.3062L26.856 38.1842L26.0094 36.3687ZM39.878 24.1324C35.115 22.5973 30.1758 19.8233 27.8614 18.3397C27.7443 17.0749 27.7236 14.9266 28.0527 13.3977C30.7844 15.179 37.2369 19.019 43.4864 20.9142C42.3866 22.0751 41.1539 23.1853 39.878 24.1324Z" fill="black"/>
</svg>
